# File created by Blade
# Date/Time:  Fri Jan 16 19:32:17 2015
# Frame Rate: 120.000 fps
#------------------------------------------------------
:FULLY-SPECIFIED
:DEGREES
674
root 19.731432 35.434524 -19.942056 10.185834 11.234401 0.178502
Spine -22.626608 -8.881922 -2.204499
Head 16.924738 -5.328899 7.218155
LeftShoulder -5.663296 6.055658 0.594157
LeftArm -96.182097 48.485839 -171.702188
LeftForeArm 62.551207 0.000000 121.196440
LeftHand 10.286085 -0.000000 -21.437939
LeftHandThumb1 -26.253704 0.000000 33.147579
RightShoulder -12.317148 12.920323 -30.579763
RightArm -336.399971 73.027293 -354.110749
RightForeArm -17.372553 0.000000 36.040854
RightHand -4.729768 -0.000000 -17.330297
RightHandThumb1 -24.326973 -0.000000 -32.862282
LeftUpLeg -0.942395 0.207228 1.173374
LeftLeg -6.842167 -0.000000 0.000000
LeftFoot -20.180302 26.968845 -13.197642
LeftToeBase 25.766261 -0.000000 -0.000000
RightUpLeg 1.505431 -16.556963 -1.279850
RightLeg -4.401207 -0.000000 0.000000
RightFoot -23.591682 -24.893087 20.615378
RightToeBase 23.905032 -0.000000 -0.000000
675
root 19.734993 35.435356 -19.944920 10.163570 11.208814 0.172784
Spine -22.603182 -8.902430 -2.180697
Head 16.934652 -5.267374 7.218140
LeftShoulder -5.651659 6.003947 0.583737
LeftArm -96.225433 48.466819 -171.727402
LeftForeArm 62.681449 -0.000000 121.224437
LeftHand 10.312738 0.000000 -21.127961
LeftHandThumb1 -26.253704 0.000000 33.147579
RightShoulder -12.277413 12.910920 -30.520857
RightArm -336.672897 72.911704 -354.355229
RightForeArm -17.403164 -0.000000 35.919276
RightHand -4.684292 0.000000 -17.383372
RightHandThumb1 -24.326973 -0.000000 -32.862282
LeftUpLeg -0.921796 0.213960 1.169748
LeftLeg -6.839923 -0.000000 0.000000
LeftFoot -20.188789 26.986163 -13.207174
LeftToeBase 25.748727 -0.000000 -0.000000
RightUpLeg 1.512099 -16.549792 -1.285221
RightLeg -4.391773 -0.000000 0.000000
RightFoot -23.573272 -24.912766 20.594724
RightToeBase 23.885355 -0.000000 -0.000000
676
root 19.739355 35.435949 -19.947638 10.152633 11.174029 0.170656
Spine -22.596893 -8.904863 -2.154790
Head 16.939555 -5.215497 7.207410
LeftShoulder -5.655681 5.981737 0.574561
LeftArm -96.274288 48.480542 -171.734165
LeftForeArm 62.655365 -0.000000 121.239401
LeftHand 10.319605 -0.000000 -20.914919
LeftHandThumb1 -26.253704 0.000000 33.147579
RightShoulder -12.238541 12.898043 -30.489079
RightArm -336.954669 72.804378 -354.602786
RightForeArm -17.446049 0.000000 35.776542
RightHand -4.716111 -0.000000 -17.379404
RightHandThumb1 -24.326973 -0.000000 -32.862282
LeftUpLeg -0.913385 0.260509 1.155927
LeftLeg -6.833922 -0.000000 0.000000
LeftFoot -20.191638 26.972384 -13.208246
LeftToeBase 25.713369 -0.000000 -0.000000
RightUpLeg 1.503147 -16.534804 -1.296133
RightLeg -4.370752 -0.000000 0.000000
RightFoot -23.568400 -24.904533 20.579472
RightToeBase 23.912785 -0.000000 -0.000000
677
root 19.742775 35.436199 -19.951417 10.138786 11.169491 0.171957
Spine -22.577694 -8.943214 -2.134612
Head 16.929837 -5.159752 7.211680
LeftShoulder -5.651653 5.960971 0.576282
LeftArm -96.250706 48.487148 -171.689857
LeftForeArm 62.515772 -0.000000 121.210382
LeftHand 10.354321 -0.000000 -20.837508
LeftHandThumb1 -26.253704 0.000000 33.147579
RightShoulder -12.212394 12.865572 -30.435507
RightArm -337.085804 72.748016 -354.708106
RightForeArm -17.486909 -0.000000 35.672493
RightHand -4.776012 -0.000000 -17.359760
RightHandThumb1 -24.326973 -0.000000 -32.862282
LeftUpLeg -0.915259 0.270095 1.146843
LeftLeg -6.812301 -0.000000 0.000000
LeftFoot -20.191931 26.966231 -13.191741
LeftToeBase 25.767321 -0.000000 -0.000000
RightUpLeg 1.510344 -16.528092 -1.306915
RightLeg -4.369867 -0.000000 0.000000
RightFoot -23.556626 -24.922353 20.565959
RightToeBase 23.909347 -0.000000 -0.000000
678
root 19.746964 35.436638 -19.953930 10.130444 11.154987 0.175759
Spine -22.571751 -8.963928 -2.113474
Head 16.928312 -5.111193 7.208136
LeftShoulder -5.651189 5.972541 0.574672
LeftArm -96.240891 48.515164 -171.672482
LeftForeArm 62.394269 0.000000 121.169743
LeftHand 10.384666 -0.000000 -20.859712
LeftHandThumb1 -26.253704 0.000000 33.147579
RightShoulder -12.187090 12.856186 -30.417739
RightArm -337.266817 72.644804 -354.857388
RightForeArm -17.649952 -0.000000 35.503591
RightHand -4.744592 -0.000000 -17.547912
RightHandThumb1 -24.326973 -0.000000 -32.862282
LeftUpLeg -0.907169 0.286276 1.132484
LeftLeg -6.812132 -0.000000 0.000000
LeftFoot -20.192977 26.959425 -13.201972
LeftToeBase 25.720927 -0.000000 -0.000000
RightUpLeg 1.506234 -16.530198 -1.321830
RightLeg -4.352900 -0.000000 0.000000
RightFoot -23.544141 -24.899764 20.549984
RightToeBase 23.900515 -0.000000 -0.000000
679
root 19.749576 35.436784 -19.958659 10.129952 11.151971 0.174966
Spine -22.567075 -8.997192 -2.085326
Head 16.917461 -5.054891 7.203955
LeftShoulder -5.656321 5.945867 0.573221
LeftArm -96.247546 48.506011 -171.662764
LeftForeArm 62.345314 -0.000000 121.131561
LeftHand 10.384082 -0.000000 -20.877500
LeftHandThumb1 -26.253704 0.000000 33.147579
RightShoulder -12.166614 12.854812 -30.403542
RightArm -337.424727 72.560217 -354.951061
RightForeArm -17.680461 -0.000000 35.441736
RightHand -4.759421 -0.000000 -17.486257
RightHandThumb1 -24.326973 -0.000000 -32.862282
LeftUpLeg -0.921733 0.293991 1.127545
LeftLeg -6.795848 -0.000000 0.000000
LeftFoot -20.196863 26.958797 -13.184874
LeftToeBase 25.748531 -0.000000 -0.000000
RightUpLeg 1.498231 -16.522308 -1.324527
RightLeg -4.352850 -0.000000 0.000000
RightFoot -23.544039 -24.916691 20.555675
RightToeBase 23.872945 -0.000000 -0.000000
680
root 19.752657 35.437033 -19.962424 10.125706 11.147042 0.176160
Spine -22.560060 -9.021645 -2.060591
Head 16.904041 -5.010284 7.192920
LeftShoulder -5.700814 5.980710 0.546790
LeftArm -96.303063 48.602813 -171.698176
LeftForeArm 62.172145 -0.000000 121.073842
LeftHand 10.452212 0.000000 -20.927303
LeftHandThumb1 -26.253704 0.000000 33.147579
RightShoulder -12.154452 12.810103 -30.383660
RightArm -337.511079 72.520081 -354.998777
RightForeArm -17.812660 0.000000 35.324121
RightHand -4.748142 -0.000000 -17.533186
RightHandThumb1 -24.326973 -0.000000 -32.862282
LeftUpLeg -0.928381 0.304671 1.119073
LeftLeg -6.782248 -0.000000 0.000000
LeftFoot -20.186708 26.958072 -13.153056
LeftToeBase 25.741023 -0.000000 -0.000000
RightUpLeg 1.494157 -16.529803 -1.331560
RightLeg -4.349313 -0.000000 0.000000
RightFoot -23.540108 -24.910865 20.561238
RightToeBase 23.898287 -0.000000 -0.000000
681
root 19.758598 35.437395 -19.965679 10.116397 11.138371 0.187754
Spine -22.548359 -9.027554 -2.049339
Head 16.911390 -4.990268 7.167184
LeftShoulder -5.703416 5.984919 0.551553
LeftArm -96.362279 48.636209 -171.763576
LeftForeArm 62.200061 0.000000 121.012519
LeftHand 10.479688 -0.000000 -20.981889
LeftHandThumb1 -26.253704 0.000000 33.147579
RightShoulder -12.156366 12.753547 -30.355419
RightArm -337.576957 72.485942 -355.063329
RightForeArm -17.872125 -0.000000 35.208556
RightHand -4.852439 -0.000000 -17.439577
RightHandThumb1 -24.326973 -0.000000 -32.862282
LeftUpLeg -0.917950 0.295988 1.097502
LeftLeg -6.786872 -0.000000 0.000000
LeftFoot -20.188125 26.962761 -13.167371
LeftToeBase 25.728143 -0.000000 -0.000000
RightUpLeg 1.504369 -16.531358 -1.358037
RightLeg -4.354302 -0.000000 0.000000
RightFoot -23.526603 -24.906872 20.538906
RightToeBase 23.920177 -0.000000 -0.000000
682
root 19.760750 35.437228 -19.971513 10.121873 11.132642 0.183197
Spine -22.544198 -9.043358 -2.022099
Head 16.870132 -4.955053 7.183498
LeftShoulder -5.708487 5.979163 0.557867
LeftArm -96.416361 48.642444 -171.812943
LeftForeArm 62.361226 -0.000000 120.945964
LeftHand 10.556617 -0.000000 -20.965341
LeftHandThumb1 -26.253704 0.000000 33.147579
RightShoulder -12.144280 12.721426 -30.324642
RightArm -337.795123 72.410604 -355.298598
RightForeArm -18.042976 -0.000000 35.059438
RightHand -4.895939 -0.000000 -17.510198
RightHandThumb1 -24.326973 -0.000000 -32.862282
LeftUpLeg -0.936730 0.286110 1.106841
LeftLeg -6.763284 -0.000000 0.000000
LeftFoot -20.218225 26.886235 -13.194301
LeftToeBase 25.734974 -0.000000 -0.000000
RightUpLeg 1.483761 -16.535983 -1.354625
RightLeg -4.348273 -0.000000 0.000000
RightFoot -23.520927 -24.909093 20.519173
RightToeBase 23.925652 -0.000000 -0.000000
683
root 19.765179 35.437641 -19.976486 10.133554 11.123093 0.194967
Spine -22.554650 -9.065644 -2.004319
Head 16.859758 -4.908887 7.183438
LeftShoulder -5.726873 5.977953 0.543211
LeftArm -96.475117 48.627950 -171.853840
LeftForeArm 62.560837 0.000000 120.904330
LeftHand 10.581135 -0.000000 -20.991992
LeftHandThumb1 -26.253704 0.000000 33.147579
RightShoulder -12.120953 12.703458 -30.306388
RightArm -337.959781 72.342909 -355.448720
RightForeArm -18.069403 -0.000000 34.954291
RightHand -4.923304 -0.000000 -17.465956
RightHandThumb1 -24.326973 -0.000000 -32.862282
LeftUpLeg -0.952783 0.300995 1.076482
LeftLeg -6.773372 -0.000000 0.000000
LeftFoot -20.189133 26.962733 -13.149397
LeftToeBase 25.752442 -0.000000 -0.000000
RightUpLeg 1.469063 -16.529982 -1.371261
RightLeg -4.354410 -0.000000 0.000000
RightFoot -23.505336 -24.915812 20.502580
RightToeBase 23.914991 -0.000000 -0.000000
684
root 19.767998 35.437334 -19.981556 10.137487 11.117538 0.196648
Spine -22.553240 -9.066204 -1.983160
Head 16.843109 -4.889322 7.169346
LeftShoulder -5.713459 5.958942 0.532637
LeftArm -96.538227 48.586251 -171.887100
LeftForeArm 62.816506 -0.000000 120.876430
LeftHand 10.569563 -0.000000 -21.011102
LeftHandThumb1 -26.253704 0.000000 33.147579
RightShoulder -12.098674 12.704699 -30.309469
RightArm -338.252793 72.255117 -355.711382
RightForeArm -18.064659 -0.000000 34.897481
RightHand -5.016396 -0.000000 -17.377522
RightHandThumb1 -24.326973 -0.000000 -32.862282
LeftUpLeg -0.966538 0.285351 1.079589
LeftLeg -6.752066 -0.000000 0.000000
LeftFoot -20.220701 26.879201 -13.193452
LeftToeBase 25.708525 -0.000000 -0.000000
RightUpLeg 1.460324 -16.540329 -1.376561
RightLeg -4.362114 -0.000000 0.000000
RightFoot -23.498958 -24.901656 20.494468
RightToeBase 23.946788 -0.000000 -0.000000
685
root 19.772440 35.437364 -19.985489 10.140143 11.106249 0.204083
Spine -22.556094 -9.069912 -1.970285
Head 16.836332 -4.859981 7.179503
LeftShoulder -5.725790 5.970488 0.527267
LeftArm -96.601096 48.581265 -171.950933
LeftForeArm 62.991139 -0.000000 120.829283
LeftHand 10.555325 -0.000000 -21.016143
LeftHandThumb1 -26.253704 0.000000 33.147579
RightShoulder -12.075892 12.694943 -30.290916
RightArm -338.408832 72.202888 -355.863777
RightForeArm -18.029562 0.000000 34.807504
RightHand -5.068199 -0.000000 -17.286203
RightHandThumb1 -24.326973 -0.000000 -32.862282
LeftUpLeg -0.968886 0.297687 1.053608
LeftLeg -6.768504 -0.000000 0.000000
LeftFoot -20.184904 26.964104 -13.124602
LeftToeBase 25.736646 -0.000000 -0.000000
RightUpLeg 1.459906 -16.526857 -1.392941
RightLeg -4.375235 -0.000000 0.000000
RightFoot -23.497988 -24.902486 20.503573
RightToeBase 23.960411 -0.000000 -0.000000
